<?xml version="1.0" standalone="no"?>
<!DOCTYPE svg PUBLIC "-//W3C//DTD SVG 20010904//EN"
 "http://www.w3.org/TR/2001/REC-SVG-20010904/DTD/svg10.dtd">
<svg version="1.0" xmlns="http://www.w3.org/2000/svg"
 width="1162.000000pt" height="1280.000000pt" viewBox="0 0 1162.000000 1280.000000"
 preserveAspectRatio="xMidYMid meet">
<metadata>
Created by potrace 1.15, written by Peter Selinger 2001-2017
</metadata>
<g transform="translate(0.000000,1280.000000) scale(0.100000,-0.100000)"
fill="#bf920a" stroke="none">
<path d="M8155 12793 c-656 -30 -1180 -130 -1725 -328 -96 -35 -326 -125 -510
-200 -413 -169 -478 -193 -782 -299 -536 -185 -974 -358 -1223 -481 -156 -77
-235 -133 -235 -166 0 -21 35 -39 78 -39 25 0 24 -1 -15 -30 -52 -39 -61 -60
-33 -82 40 -33 194 -20 478 38 121 24 701 161 1182 278 1764 429 2752 553
3584 450 562 -69 902 -251 1012 -540 24 -62 26 -77 20 -157 -9 -121 -47 -262
-96 -356 -104 -199 -286 -328 -792 -561 -210 -96 -219 -100 -243 -84 -35 23
-89 97 -223 309 -218 343 -334 459 -494 495 -89 19 -231 -10 -353 -73 -78 -41
-159 -113 -261 -230 -39 -46 -42 -47 -97 -47 -49 0 -70 7 -164 57 -250 131
-262 136 -316 141 -46 4 -57 1 -84 -22 -19 -16 -40 -50 -53 -82 -21 -57 -29
-161 -14 -185 4 -7 7 -30 5 -50 -3 -51 22 -105 56 -122 15 -8 55 -18 88 -23
l60 -8 -45 -13 c-25 -8 -124 -18 -220 -24 -363 -19 -450 -38 -511 -106 -35
-40 -33 -21 -15 -225 7 -81 38 -133 99 -165 37 -19 152 -18 242 1 57 12 258
69 325 92 10 3 11 2 5 -4 -5 -5 -64 -33 -130 -62 -237 -104 -337 -165 -370
-231 -19 -35 -19 -57 -1 -90 8 -17 12 -44 9 -70 -9 -83 63 -149 163 -149 101
0 213 50 494 218 158 95 260 148 260 137 0 -2 -36 -31 -79 -64 -44 -34 -89
-74 -101 -91 -30 -42 -37 -103 -16 -134 12 -19 14 -31 6 -51 -20 -52 40 -138
128 -184 37 -20 117 -16 154 7 57 36 123 112 213 247 98 147 133 187 182 210
34 16 77 14 116 -7 51 -26 -145 -255 -401 -468 -130 -108 -367 -347 -465 -470
-37 -47 -145 -195 -239 -330 -473 -676 -770 -1035 -1117 -1354 -257 -236 -422
-347 -791 -531 -230 -115 -293 -142 -297 -128 -3 7 -35 58 -72 115 -173 261
-385 399 -616 399 -49 0 -112 -5 -140 -11 -187 -42 -356 -210 -484 -481 -72
-153 -153 -395 -191 -570 l-12 -56 -317 -113 c-390 -139 -728 -266 -886 -331
-203 -85 -514 -244 -640 -327 -166 -110 -238 -185 -383 -398 -191 -283 -249
-342 -489 -506 -117 -80 -164 -121 -190 -171 -25 -47 -28 -220 -5 -382 l18
-130 -48 -145 c-121 -371 -166 -672 -138 -910 28 -244 64 -345 153 -434 84
-85 275 -170 497 -223 59 -14 118 -18 275 -18 173 0 214 3 305 23 435 98 875
358 1332 790 234 221 227 215 344 262 161 63 229 111 389 274 77 79 150 148
163 155 77 41 209 54 263 25 38 -19 100 -145 153 -309 69 -215 91 -345 66
-409 -14 -38 -87 -113 -152 -157 -146 -99 -440 -221 -684 -283 -127 -33 -144
-22 -188 121 -50 161 -69 205 -106 244 -31 32 -44 39 -76 39 -49 0 -133 -47
-170 -95 -24 -32 -26 -40 -19 -88 8 -63 12 -103 14 -138 0 -15 31 -75 67 -135
l66 -109 -18 -35 c-15 -27 -30 -39 -69 -52 -71 -24 -142 -22 -374 12 -292 43
-390 39 -442 -16 -20 -22 -24 -35 -23 -87 2 -95 19 -209 37 -244 45 -87 137
-116 363 -114 142 1 258 -9 272 -24 9 -9 -52 -98 -214 -310 -318 -417 -392
-564 -365 -725 6 -36 13 -86 16 -111 7 -55 40 -103 97 -141 48 -33 80 -35 128
-9 65 34 134 143 295 461 90 178 173 329 200 363 71 90 132 117 182 82 l21
-14 -45 -153 c-54 -186 -57 -229 -27 -426 13 -83 111 -137 234 -130 80 4 102
19 133 88 18 39 22 74 28 255 5 149 11 225 23 261 36 115 140 196 786 611 539
346 688 462 720 558 8 26 11 75 7 159 -10 222 -33 330 -151 711 -109 352 -118
403 -84 469 13 25 76 52 618 266 1106 438 1503 608 2030 871 574 287 891 492
1138 737 299 297 708 831 1062 1387 46 72 86 133 89 137 3 4 7 -14 8 -40 3
-93 18 -189 32 -206 7 -9 45 -33 82 -52 38 -20 69 -40 69 -44 0 -27 -95 -94
-250 -178 -213 -114 -268 -180 -239 -284 7 -23 11 -61 10 -83 -2 -47 30 -108
72 -139 69 -51 154 -16 367 150 188 147 254 177 305 141 14 -11 17 -21 12 -46
-11 -54 -73 -170 -183 -341 -58 -91 -128 -212 -156 -269 -57 -115 -60 -135
-41 -295 8 -72 12 -81 45 -111 64 -59 147 -59 216 1 52 44 127 165 183 293
172 395 220 483 281 521 61 37 123 17 160 -53 22 -41 23 -54 29 -392 4 -192
12 -386 18 -430 30 -206 83 -285 191 -285 61 0 95 22 124 82 52 108 55 310 10
686 -38 321 -47 444 -36 511 26 153 98 118 338 -166 174 -205 256 -285 329
-319 86 -41 141 -29 207 44 46 51 72 119 64 169 -3 21 -10 70 -15 110 -11 97
-46 143 -219 287 -236 197 -336 313 -401 470 -38 92 -46 154 -61 491 -23 544
-68 756 -267 1259 -59 149 -199 464 -238 534 l-24 43 133 222 c277 462 438
798 555 1160 99 305 135 512 136 782 0 226 -19 369 -71 525 -284 853 -1516
1403 -2989 1333z m1915 -5085 c1 -523 -36 -736 -147 -839 -95 -87 -180 -100
-316 -47 -45 17 -97 32 -114 32 -18 1 -33 2 -33 3 0 1 49 85 110 186 133 223
320 564 415 754 39 78 73 142 77 142 4 1 7 -104 8 -231z"/>
</g>
</svg>
