<?xml version="1.0" encoding="utf-8"?>
<!-- Generator: Adobe Illustrator 22.0.1, SVG Export Plug-In . SVG Version: 6.00 Build 0)  -->
<svg version="1.1" id="Laag_1" xmlns="http://www.w3.org/2000/svg" xmlns:xlink="http://www.w3.org/1999/xlink" x="0px" y="0px"
	 viewBox="0 0 1732.4 350" style="enable-background:new 0 0 1732.4 350;" xml:space="preserve">
<style type="text/css">
	.st0{fill:#fff;}
</style>
<g>
	<g>
		<path class="st0" d="M747.6,161.6c-6-2.5-10.5-5.8-13.5-9.9c-3.1-4.1-4.7-8.6-4.9-13.4c0-0.7,0.3-1.4,0.8-2
			c0.6-0.6,1.3-0.9,2.1-0.9h12.7c1,0,1.9,0.2,2.5,0.7c0.6,0.5,1.3,1.1,1.8,2c0.9,3.2,3,5.8,6.3,8c3.3,2.1,7.8,3.2,13.6,3.2
			c6.5,0,11.4-1.1,14.7-3.3c3.3-2.2,5-5.2,5-9c0-2.5-0.8-4.6-2.5-6.3c-1.7-1.7-4.2-3.1-7.6-4.4c-3.4-1.3-8.4-2.8-15.1-4.5
			c-11-2.6-19-6-24.1-10.3c-5.1-4.3-7.7-10.4-7.7-18.4c0-5.4,1.5-10.2,4.5-14.4c3-4.2,7.2-7.6,12.8-10c5.5-2.4,12-3.6,19.3-3.6
			c7.7,0,14.4,1.4,20,4c5.6,2.7,9.9,6.1,12.8,10.1c2.9,4,4.5,8.1,4.7,12.1c0,0.7-0.3,1.4-0.8,2c-0.6,0.6-1.3,0.9-2.1,0.9h-13.3
			c-2,0-3.4-0.8-4.2-2.5c-0.5-3-2.3-5.5-5.4-7.5c-3.2-2-7.1-3-11.7-3c-5.1,0-9.1,1-12.1,2.9c-2.9,2-4.4,4.8-4.4,8.5
			c0,2.5,0.7,4.6,2.2,6.3c1.5,1.7,3.8,3.1,7,4.4c3.2,1.3,7.8,2.7,13.8,4.3c8.3,1.9,14.9,4,19.7,6.3c4.9,2.3,8.5,5.3,10.8,8.8
			c2.3,3.5,3.5,8,3.5,13.5c0,6-1.7,11.3-5,15.7c-3.3,4.4-8,7.8-13.9,10.1c-6,2.3-13,3.5-20.9,3.5
			C760.7,165.4,753.6,164.1,747.6,161.6z"/>
		<path class="st0" d="M822.1,163.1c-0.6-0.6-0.8-1.3-0.8-2.1l0.3-1.3l33.5-90c0.9-2.3,2.6-3.5,5-3.5h15.3c2.4,0,4.1,1.2,5,3.5
			l33.5,90l0.3,1.3c0,0.8-0.3,1.5-0.9,2.1c-0.6,0.6-1.3,0.8-2,0.8h-12.4c-2,0-3.3-0.9-4-2.7l-6.4-16.9h-41.3l-6.4,16.9
			c-0.7,1.8-2.1,2.7-4,2.7h-12.4C823.4,164,822.7,163.7,822.1,163.1z M852,128.3h31.5l-15.8-43L852,128.3z"/>
		<path class="st0" d="M935,163c-0.7-0.7-1-1.4-1-2.4V69.7c0-1,0.3-1.8,1-2.4c0.6-0.6,1.4-0.9,2.4-0.9h13.1c1,0,1.8,0.3,2.4,0.9
			c0.6,0.6,0.9,1.4,0.9,2.4v77.6H998c1,0,1.9,0.3,2.5,1c0.7,0.7,1,1.4,1,2.4v10c0,0.9-0.3,1.7-1,2.4s-1.5,1-2.5,1h-60.7
			C936.4,164,935.6,163.6,935,163z"/>
		<path class="st0" d="M1013.9,163.1c-0.6-0.6-0.8-1.3-0.8-2.1l0.3-1.3l33.5-90c0.9-2.3,2.6-3.5,5-3.5h15.3c2.4,0,4.1,1.2,5,3.5
			l33.5,90l0.3,1.3c0,0.8-0.3,1.5-0.9,2.1c-0.6,0.6-1.3,0.8-2,0.8h-12.4c-2,0-3.3-0.9-4-2.7l-6.4-16.9h-41.3l-6.4,16.9
			c-0.7,1.8-2.1,2.7-4,2.7H1016C1015.2,164,1014.5,163.7,1013.9,163.1z M1043.8,128.3h31.5l-15.8-43L1043.8,128.3z"/>
		<path class="st0" d="M1126.8,163c-0.7-0.7-1-1.4-1-2.4V69.8c0-1,0.3-1.9,0.9-2.5s1.4-1,2.4-1h11.3c1.8,0,3.2,0.9,4.2,2.7
			l26.9,49.9l26.9-49.9c1-1.8,2.4-2.7,4.2-2.7h11.2c1,0,1.9,0.3,2.5,1c0.6,0.7,1,1.5,1,2.5v90.8c0,1-0.3,1.8-1,2.4
			c-0.7,0.6-1.5,0.9-2.5,0.9h-12c-0.9,0-1.7-0.3-2.4-1c-0.7-0.7-1-1.4-1-2.4v-60l-19.4,36.8c-1,2-2.6,3.1-4.6,3.1h-5.9
			c-2,0-3.5-1-4.7-3.1l-19.4-36.8v60c0,0.9-0.3,1.7-0.9,2.4c-0.6,0.7-1.4,1-2.4,1h-12C1128.2,164,1127.4,163.6,1126.8,163z"/>
		<path class="st0" d="M1237.9,163.1c-0.6-0.6-0.8-1.3-0.8-2.1l0.3-1.3l33.5-90c0.9-2.3,2.6-3.5,5-3.5h15.3c2.4,0,4.1,1.2,5,3.5
			l33.5,90l0.3,1.3c0,0.8-0.3,1.5-0.9,2.1c-0.6,0.6-1.3,0.8-2,0.8h-12.4c-2,0-3.3-0.9-4-2.7l-6.4-16.9h-41.3l-6.4,16.9
			c-0.7,1.8-2.1,2.7-4,2.7H1240C1239.2,164,1238.5,163.7,1237.9,163.1z M1267.8,128.3h31.5l-15.8-43L1267.8,128.3z"/>
		<path class="st0" d="M1350.8,163c-0.7-0.7-1-1.4-1-2.4V69.8c0-1,0.3-1.9,0.9-2.5s1.4-1,2.4-1h10.9c1.8,0,3.1,0.8,4,2.4l39.9,61.9
			V69.8c0-1,0.3-1.9,0.9-2.5c0.6-0.7,1.4-1,2.4-1h12c1,0,1.9,0.3,2.5,1c0.6,0.7,1,1.5,1,2.5v90.7c0,1-0.3,1.9-1,2.5
			c-0.7,0.7-1.4,1-2.4,1h-11c-1.9,0-3.3-0.8-4.2-2.4l-39.8-60.5v59.6c0,0.9-0.3,1.7-0.9,2.4c-0.6,0.7-1.4,1-2.4,1h-12
			C1352.2,164,1351.4,163.6,1350.8,163z"/>
		<path class="st0" d="M1456.4,163c-0.7-0.7-1-1.4-1-2.4V69.8c0-1,0.3-1.9,0.9-2.5s1.4-1,2.4-1h34c27.4,0,41.4,12.6,42,37.9
			c0.2,5.4,0.3,9,0.3,10.9c0,1.8-0.1,5.3-0.3,10.7c-0.4,13-3.9,22.6-10.5,28.8c-6.6,6.2-16.9,9.3-30.8,9.3h-34.7
			C1457.8,164,1457,163.6,1456.4,163z M1492.8,147.8c7.7,0,13.3-1.7,16.7-5.2c3.4-3.4,5.3-9.2,5.4-17.2c0.2-5.6,0.3-9.1,0.3-10.5
			c0-1.5-0.1-4.9-0.3-10.3c-0.2-7.6-2.1-13.2-5.7-16.8c-3.6-3.6-9.3-5.4-17.2-5.4h-17v65.3H1492.8z"/>
		<path class="st0" d="M1561.4,163c-0.7-0.7-1-1.4-1-2.4V69.8c0-1,0.3-1.9,0.9-2.5s1.4-1,2.4-1h61.5c1,0,1.9,0.3,2.5,1
			c0.6,0.7,1,1.5,1,2.5v9.3c0,1-0.3,1.8-1,2.4c-0.7,0.6-1.5,0.9-2.5,0.9h-45.8v24.4h42.7c1,0,1.9,0.3,2.5,1c0.6,0.7,1,1.5,1,2.5v8.8
			c0,1-0.3,1.8-1,2.4c-0.7,0.6-1.5,0.9-2.5,0.9h-42.7v25.2h46.9c1,0,1.9,0.3,2.5,0.9c0.7,0.6,1,1.4,1,2.4v9.5c0,1-0.3,1.8-1,2.4
			c-0.7,0.6-1.5,0.9-2.5,0.9h-62.6C1562.8,164,1562.1,163.6,1561.4,163z"/>
		<path class="st0" d="M1655.3,163c-0.7-0.7-1-1.4-1-2.4V69.8c0-1,0.3-1.9,0.9-2.5s1.4-1,2.4-1h36.1c11.4,0,20.4,2.7,26.9,8
			c6.5,5.3,9.7,12.8,9.7,22.6c0,6.8-1.6,12.5-4.9,17.1c-3.3,4.6-7.8,7.9-13.7,10l20.2,35.6c0.3,0.6,0.4,1.1,0.4,1.5
			c0,0.8-0.3,1.5-0.9,2.1c-0.6,0.6-1.3,0.8-2,0.8h-12.8c-1.5,0-2.7-0.3-3.5-1c-0.8-0.7-1.6-1.6-2.2-2.7l-17.9-33.1H1674v33.5
			c0,0.9-0.3,1.7-1,2.4c-0.7,0.7-1.5,1-2.5,1h-12.8C1656.7,164,1655.9,163.6,1655.3,163z M1693.4,111.2c5.6,0,9.8-1.2,12.6-3.7
			s4.2-6.1,4.2-10.8c0-4.7-1.4-8.4-4.2-10.9c-2.8-2.6-7-3.8-12.6-3.8H1674v29.3H1693.4z"/>
	</g>
	<g>
		<path class="st0" d="M730.4,292.1c-0.3-0.3-0.4-0.6-0.4-1v-42.2c0-0.4,0.1-0.8,0.4-1.1c0.3-0.3,0.6-0.4,1-0.4h13.7
			c4.5,0,8,0.7,10.6,2c2.6,1.3,4.4,3.2,5.5,5.8c1.1,2.5,1.7,5.8,1.8,9.7c0,1.3,0.1,3,0.1,5.1c0,2.1,0,3.9-0.1,5.2
			c-0.1,4.1-0.7,7.4-1.8,9.9c-1.1,2.5-2.9,4.4-5.4,5.6c-2.5,1.2-6,1.9-10.4,1.9h-14C731,292.5,730.7,292.3,730.4,292.1z
			 M745.2,288.6c3.4,0,6.1-0.5,8.1-1.4c2-0.9,3.4-2.4,4.3-4.4c0.9-2,1.4-4.7,1.4-8.1c0-1.3,0.1-2.9,0.1-4.8c0-1.9,0-3.5-0.1-4.8
			c-0.1-4.8-1.2-8.3-3.4-10.5c-2.2-2.2-5.8-3.3-10.8-3.3h-10.8v37.3H745.2z"/>
		<path class="st0" d="M777.3,292.1c-0.3-0.3-0.4-0.6-0.4-1v-42.2c0-0.4,0.1-0.8,0.4-1c0.3-0.3,0.6-0.4,1-0.4h1.2
			c0.4,0,0.8,0.1,1,0.4c0.3,0.3,0.4,0.6,0.4,1v42.2c0,0.4-0.1,0.8-0.4,1c-0.3,0.3-0.6,0.4-1,0.4h-1.2
			C777.9,292.5,777.5,292.3,777.3,292.1z"/>
		<path class="st0" d="M799.2,288.5c-3-3.1-4.5-7.2-4.7-12.4c0-1.3-0.1-3.3-0.1-6.1s0-4.8,0.1-6.1c0.2-5.2,1.7-9.3,4.7-12.4
			c3-3.1,7.1-4.6,12.5-4.6c3.6,0,6.7,0.7,9.2,2.1c2.5,1.4,4.3,3,5.6,4.9c1.2,1.9,1.9,3.5,2,5v0.1c0,0.3-0.1,0.6-0.4,0.8
			c-0.3,0.2-0.6,0.3-1,0.3h-1.4c-0.4,0-0.7-0.1-0.8-0.3c-0.2-0.2-0.3-0.5-0.5-1c-0.7-2.3-2.1-4.2-4.2-5.7c-2.1-1.5-4.9-2.3-8.4-2.3
			c-4,0-7.1,1.1-9.4,3.3c-2.3,2.2-3.5,5.6-3.7,10.2c0,1.3-0.1,3.2-0.1,5.8s0,4.5,0.1,5.8c0.2,4.6,1.4,8,3.7,10.2
			c2.3,2.2,5.4,3.3,9.4,3.3c4,0,7.2-1.1,9.7-3.4s3.7-5.6,3.7-10.1v-3.3h-11.2c-0.4,0-0.8-0.1-1-0.4c-0.3-0.3-0.4-0.6-0.4-1.1v-0.9
			c0-0.4,0.1-0.8,0.4-1.1c0.3-0.3,0.6-0.4,1-0.4h13.8c0.5,0,0.8,0.1,1.1,0.4c0.3,0.3,0.4,0.6,0.4,1.1v5.7c0,3.4-0.7,6.5-2.1,9.1
			c-1.4,2.6-3.4,4.7-6,6.1c-2.6,1.5-5.7,2.2-9.3,2.2C806.3,293.1,802.2,291.6,799.2,288.5z"/>
		<path class="st0" d="M842.6,292.1c-0.3-0.3-0.4-0.6-0.4-1v-42.2c0-0.4,0.1-0.8,0.4-1c0.3-0.3,0.6-0.4,1-0.4h1.2
			c0.4,0,0.8,0.1,1,0.4c0.3,0.3,0.4,0.6,0.4,1v42.2c0,0.4-0.1,0.8-0.4,1c-0.3,0.3-0.6,0.4-1,0.4h-1.2
			C843.2,292.5,842.9,292.3,842.6,292.1z"/>
		<path class="st0" d="M871.8,292.1c-0.3-0.3-0.4-0.6-0.4-1v-39.8h-12.7c-0.4,0-0.8-0.1-1-0.4c-0.3-0.3-0.4-0.6-0.4-1v-1
			c0-0.4,0.1-0.8,0.4-1.1c0.3-0.3,0.6-0.4,1-0.4h29.5c0.5,0,0.8,0.1,1.1,0.4c0.3,0.3,0.4,0.6,0.4,1.1v1c0,0.4-0.1,0.8-0.4,1
			c-0.3,0.3-0.6,0.4-1.1,0.4h-12.7v39.8c0,0.4-0.1,0.8-0.4,1c-0.3,0.3-0.6,0.4-1.1,0.4h-1.2C872.4,292.5,872.1,292.3,871.8,292.1z"
			/>
		<path class="st0" d="M891.7,292.1c-0.3-0.3-0.4-0.6-0.4-0.9l0.1-0.7l16.3-41.8c0.3-0.9,1-1.3,1.9-1.3h2.2c0.9,0,1.5,0.4,1.9,1.3
			l16.3,41.8l0.1,0.7c0,0.3-0.1,0.6-0.4,0.9c-0.3,0.3-0.6,0.4-0.9,0.4h-1.3c-0.4,0-0.7-0.1-0.9-0.3c-0.2-0.2-0.4-0.4-0.5-0.6
			l-4-10.3h-22.8l-4,10.3c-0.1,0.2-0.2,0.4-0.5,0.6c-0.2,0.2-0.5,0.3-0.9,0.3h-1.3C892.3,292.5,892,292.3,891.7,292.1z M900.9,277.3
			h19.7l-9.9-25.4L900.9,277.3z"/>
		<path class="st0" d="M941.3,292.1c-0.3-0.3-0.4-0.6-0.4-1v-42.2c0-0.4,0.1-0.8,0.4-1c0.3-0.3,0.6-0.4,1-0.4h1.2
			c0.4,0,0.8,0.1,1,0.4c0.3,0.3,0.4,0.6,0.4,1v39.8h22.2c0.5,0,0.8,0.1,1.1,0.4c0.3,0.3,0.4,0.6,0.4,1.1v1c0,0.4-0.1,0.8-0.4,1
			c-0.3,0.3-0.6,0.4-1.1,0.4h-24.9C941.9,292.5,941.6,292.3,941.3,292.1z"/>
		<path class="st0" d="M991.7,292.1c-0.3-0.3-0.4-0.6-0.4-0.9l0.1-0.7l16.3-41.8c0.3-0.9,1-1.3,1.9-1.3h2.2c0.9,0,1.5,0.4,1.9,1.3
			l16.3,41.8l0.1,0.7c0,0.3-0.1,0.6-0.4,0.9c-0.3,0.3-0.6,0.4-0.9,0.4h-1.3c-0.4,0-0.7-0.1-0.9-0.3c-0.2-0.2-0.4-0.4-0.5-0.6
			l-4-10.3h-22.8l-4,10.3c-0.1,0.2-0.2,0.4-0.5,0.6c-0.2,0.2-0.5,0.3-0.9,0.3h-1.3C992.2,292.5,991.9,292.3,991.7,292.1z
			 M1000.8,277.3h19.7l-9.9-25.4L1000.8,277.3z"/>
		<path class="st0" d="M1043,288.5c-3-3.1-4.5-7.2-4.7-12.4c0-1.3-0.1-3.3-0.1-6.1s0-4.8,0.1-6.1c0.2-5.2,1.7-9.3,4.7-12.4
			c3-3.1,7.1-4.6,12.5-4.6c3.6,0,6.7,0.7,9.2,2.1c2.5,1.4,4.3,3,5.6,4.9c1.2,1.9,1.9,3.5,2,5v0.1c0,0.3-0.1,0.6-0.4,0.8
			c-0.3,0.2-0.6,0.3-1,0.3h-1.4c-0.4,0-0.7-0.1-0.8-0.3c-0.2-0.2-0.3-0.5-0.5-1c-0.7-2.3-2.1-4.2-4.2-5.7s-4.9-2.3-8.4-2.3
			c-4,0-7.1,1.1-9.4,3.3c-2.3,2.2-3.5,5.6-3.7,10.2c0,1.3-0.1,3.2-0.1,5.8s0,4.5,0.1,5.8c0.2,4.6,1.4,8,3.7,10.2
			c2.3,2.2,5.4,3.3,9.4,3.3c4,0,7.2-1.1,9.7-3.4c2.4-2.3,3.7-5.6,3.7-10.1v-3.3h-11.2c-0.4,0-0.8-0.1-1-0.4
			c-0.3-0.3-0.4-0.6-0.4-1.1v-0.9c0-0.4,0.1-0.8,0.4-1.1c0.3-0.3,0.6-0.4,1-0.4h13.8c0.5,0,0.8,0.1,1.1,0.4c0.3,0.3,0.4,0.6,0.4,1.1
			v5.7c0,3.4-0.7,6.5-2.1,9.1c-1.4,2.6-3.4,4.7-6,6.1c-2.6,1.5-5.7,2.2-9.3,2.2C1050.2,293.1,1046,291.6,1043,288.5z"/>
		<path class="st0" d="M1086.4,292.1c-0.3-0.3-0.4-0.6-0.4-1v-42.2c0-0.4,0.1-0.8,0.4-1.1c0.3-0.3,0.6-0.4,1-0.4h25.1
			c0.5,0,0.8,0.1,1.1,0.4c0.3,0.3,0.4,0.6,0.4,1.1v1c0,0.4-0.1,0.8-0.4,1c-0.3,0.3-0.6,0.4-1.1,0.4h-22.5v16.4h21.1
			c0.5,0,0.8,0.1,1.1,0.4c0.3,0.3,0.4,0.6,0.4,1.1v1c0,0.4-0.1,0.8-0.4,1c-0.3,0.3-0.6,0.4-1.1,0.4h-21.1v17.1h23
			c0.5,0,0.8,0.1,1.1,0.4c0.3,0.3,0.4,0.6,0.4,1.1v1c0,0.4-0.1,0.8-0.4,1c-0.3,0.3-0.6,0.4-1.1,0.4h-25.6
			C1087,292.5,1086.7,292.3,1086.4,292.1z"/>
		<path class="st0" d="M1127.8,292.1c-0.3-0.3-0.4-0.6-0.4-1v-42.2c0-0.4,0.1-0.8,0.4-1.1c0.3-0.3,0.6-0.4,1-0.4h1.4
			c0.6,0,1,0.3,1.4,0.8l23.8,36.3v-35.6c0-0.4,0.1-0.8,0.4-1.1c0.3-0.3,0.6-0.4,1-0.4h1.2c0.5,0,0.8,0.1,1.1,0.4
			c0.3,0.3,0.4,0.6,0.4,1.1V291c0,0.4-0.1,0.8-0.4,1.1c-0.3,0.3-0.6,0.4-1,0.4h-1.4c-0.6,0-1-0.3-1.4-0.8l-23.7-36.2v35.5
			c0,0.4-0.1,0.8-0.4,1c-0.3,0.3-0.6,0.4-1.1,0.4h-1.2C1128.4,292.5,1128,292.3,1127.8,292.1z"/>
		<path class="st0" d="M1177.3,288.4c-2.8-3.2-4.3-7.4-4.5-12.7c0-1.2-0.1-3-0.1-5.7c0-2.7,0-4.6,0.1-5.8c0.2-5.3,1.7-9.6,4.5-12.7
			c2.8-3.2,7-4.7,12.6-4.7c3.8,0,7,0.7,9.5,2.1c2.5,1.4,4.4,3.2,5.6,5.3c1.2,2.1,1.9,4.3,2,6.5v0.1c0,0.3-0.1,0.6-0.4,0.8
			c-0.3,0.2-0.6,0.3-1,0.3h-1.3c-0.8,0-1.2-0.5-1.4-1.4c-0.8-3.6-2.3-6.2-4.4-7.7c-2.1-1.5-5-2.3-8.7-2.3c-4,0-7.2,1.1-9.4,3.4
			c-2.2,2.3-3.4,5.8-3.6,10.5c0,1.2-0.1,2.9-0.1,5.3c0,2.4,0,4.2,0.1,5.5c0.2,4.7,1.4,8.2,3.6,10.5c2.2,2.3,5.4,3.4,9.4,3.4
			c3.6,0,6.5-0.8,8.7-2.3c2.1-1.5,3.6-4.1,4.4-7.7c0.2-0.9,0.6-1.4,1.4-1.4h1.3c0.4,0,0.7,0.1,1,0.4c0.3,0.2,0.4,0.5,0.4,0.9
			c-0.1,2.2-0.8,4.4-2,6.5c-1.2,2.1-3.1,3.9-5.6,5.3c-2.5,1.4-5.7,2.1-9.5,2.1C1184.3,293.1,1180.1,291.5,1177.3,288.4z"/>
		<path class="st0" d="M1231.2,292.1c-0.3-0.3-0.4-0.6-0.4-1v-15.8l-15.7-25.8c-0.2-0.3-0.3-0.6-0.3-0.8c0-0.3,0.1-0.6,0.4-0.9
			c0.3-0.3,0.6-0.4,0.9-0.4h1.3c0.6,0,1.1,0.3,1.5,1l14,22.7l14-22.7c0.4-0.6,0.9-1,1.5-1h1.3c0.3,0,0.6,0.1,0.9,0.4
			c0.3,0.3,0.4,0.6,0.4,0.9c0,0.2-0.1,0.5-0.3,0.8l-15.7,25.8v15.8c0,0.4-0.1,0.8-0.4,1c-0.3,0.3-0.6,0.4-1.1,0.4h-1.2
			C1231.8,292.5,1231.5,292.3,1231.2,292.1z"/>
	</g>
	<g id="SM_LOGO_1_" transform="translate(1554.237 61.34)">
		<g id="Group_433_1_" transform="translate(116.763 18.66)">
			<path id="Path_1652_1_" class="st0" d="M-1581.2,56.3l-84.9,205.4l135.8-131.3L-1581.2,56.3z"/>
			<path id="Path_1653_1_" class="st0" d="M-1491.1,154.8l129.8,100.9l-99.2-121.4L-1491.1,154.8z"/>
			<path id="Path_1654_1_" class="st0" d="M-1495.8,151.2l26.8-17.8h-49.6L-1495.8,151.2z"/>
			<path id="Path_1655_1_" class="st0" d="M-1526.4,134.3l-123.8,119.6l149.6-99.5L-1526.4,134.3z"/>
			<path id="Path_1656_1_" class="st0" d="M-1671-74v332.9l86.1-208L-1671-74z"/>
			<path id="Path_1657_1_" class="st0" d="M-1455.6,131.7l107,130.8l-32.9-163.6L-1455.6,131.7z"/>
			<path id="Path_1658_1_" class="st0" d="M-1228.3,270h137.8l-86.1-124.9L-1228.3,270z"/>
			<path id="Path_1659_1_" class="st0" d="M-1664.6,270h312.8l-144.3-112.1L-1664.6,270z"/>
			<path id="Path_1660_1_" class="st0" d="M-1530.6-80h-137.9l86.1,124.9L-1530.6-80z"/>
			<path id="Path_1661_1_" class="st0" d="M-1578.8,50.3l49.5,71.6V-68.9L-1578.8,50.3z"/>
			<path id="Path_1662_1_" class="st0" d="M-1228.9,59.7l51,74.1l85-205.4L-1228.9,59.7z"/>
			<path id="Path_1663_1_" class="st0" d="M-1377.6,91.1l74.2-32.8l-107-130.8L-1377.6,91.1z"/>
			<path id="Path_1664_1_" class="st0" d="M-1267.9,35.3l-130-101l99.4,121.4L-1267.9,35.3z"/>
			<path id="Path_1665_1_" class="st0" d="M-1258.4,35.6l25.7,20.1l123.8-119.4L-1258.4,35.6z"/>
			<path id="Path_1666_1_" class="st0" d="M-1088.1,264V-68.9l-86.1,208L-1088.1,264z"/>
			<path id="Path_1667_1_" class="st0" d="M-1263.2,38.9l-26.6,17.6h49.5L-1263.2,38.9z"/>
			<path id="Path_1668_1_" class="st0" d="M-1302.7,63.9l-73.7,32.7l32.7,162.6L-1302.7,63.9z"/>
			<path id="Path_1669_1_" class="st0" d="M-1456.2,126.1l73.5-32.7l-32.7-162.6L-1456.2,126.1z"/>
			<path id="Path_1670_1_" class="st0" d="M-1094.4-80h-312.8l144.2,112.1L-1094.4-80z"/>
			<path id="Path_1671_1_" class="st0" d="M-1180.4,139.8l-49.3-71.6v190.8L-1180.4,139.8z"/>
		</g>
	</g>
</g>
</svg>
